<svg id="Layer_1" data-name="Layer 1" xmlns="http://www.w3.org/2000/svg" viewBox="0 0 400 40">
    <defs>
        <style>.cls-1{fill:#231f20}.cls-2{fill:#000}</style>
    </defs>
    <title>7Artboard 1400</title>
    <path class="cls-1"
          d="M254.07 34.75v4.19h-1v-4.19h-1.3v-.82h3.56v.82zM259.49 38.94v-2.17h-2.12v2.17h-1v-5h1v2h2.12v-2h1v5zM261.91 38.94v-5h2.73v.81h-1.76V36h1.67v.79h-1.67v1.36h1.76v.82zM270 39a2.14 2.14 0 0 1-2.31-2.41 2.4 2.4 0 0 1 2.51-2.71 4.17 4.17 0 0 1 1.06.14l-.11.87a3.74 3.74 0 0 0-1-.15c-.93 0-1.39.71-1.39 1.68s.45 1.7 1.46 1.7a2.58 2.58 0 0 0 1-.2l.11.86A4 4 0 0 1 270 39zM274.49 39c-1.53 0-2.28-1-2.28-2.53a2.45 2.45 0 0 1 2.45-2.65c1.34 0 2.28.8 2.28 2.52a2.45 2.45 0 0 1-2.45 2.66zm.08-4.31c-.69 0-1.33.55-1.33 1.68s.42 1.75 1.32 1.75c.65 0 1.35-.5 1.35-1.71s-.48-1.69-1.34-1.69zM278.11 38.94v-5h1v4.16h1.62v.84zM281.7 38.94v-5h1v4.16h1.62v.84zM285.29 38.94v-5H288v.81h-1.76V36h1.67v.79h-1.67v1.36H288v.82zM293.16 35a3.62 3.62 0 0 0-1.33-.25 1.6 1.6 0 0 0-1.7 1.74 1.5 1.5 0 0 0 1.6 1.69 2.08 2.08 0 0 0 .63-.09v-1.77h1v2.39a4.74 4.74 0 0 1-1.72.31 2.3 2.3 0 0 1-2.52-2.47 2.59 2.59 0 0 1 2.8-2.7 5 5 0 0 1 1.42.22zM294.73 38.94v-5h2.72v.81h-1.75V36h1.66v.79h-1.66v1.36h1.75v.82zM302.83 39c-1.53 0-2.28-1-2.28-2.53a2.44 2.44 0 0 1 2.45-2.62c1.33 0 2.27.8 2.27 2.52a2.45 2.45 0 0 1-2.44 2.63zm.08-4.31c-.69 0-1.33.55-1.33 1.68s.41 1.75 1.31 1.75c.66 0 1.35-.5 1.35-1.71s-.47-1.69-1.33-1.69zM307.39 34.75V36H309v.79h-1.62v2.11h-1v-5h2.68v.82zM315.4 38.94v-2.17h-2.13v2.17h-1v-5h1v2h2.13v-2h1v5zM317.81 38.94v-5h1v5zM324.05 35a3.62 3.62 0 0 0-1.33-.25 1.6 1.6 0 0 0-1.7 1.74 1.5 1.5 0 0 0 1.59 1.69 2.11 2.11 0 0 0 .64-.09v-1.77h1v2.39a4.77 4.77 0 0 1-1.71.31 2.31 2.31 0 0 1-2.54-2.47 2.6 2.6 0 0 1 2.81-2.7 5 5 0 0 1 1.42.22zM328.73 38.94v-2.17h-2.12v2.17h-1v-5h1v2h2.12v-2h1v5zM331.15 38.94v-5h2.72v.81h-1.76V36h1.67v.79h-1.67v1.36h1.76v.82zM337.61 38.94l-1.4-2.07v2.07h-1v-5h1.44c1.11 0 1.82.39 1.82 1.41a1.4 1.4 0 0 1-1.28 1.4l.41.55 1.2 1.68zm-1.05-4.25h-.38v1.45h.35c.57 0 .93-.29.93-.76s-.29-.69-.9-.69zM341.85 38.94v-5h1v4.16h1.62v.84zM345.44 38.94v-5h2.73v.81h-1.76V36h1.67v.79h-1.67v1.36h1.76v.82zM352.56 38.94l-.35-1h-1.89l-.35 1h-1l1.75-5h1.09l1.79 5zm-1.07-3.1a8 8 0 0 1-.23-.8c-.06.26-.14.55-.23.84l-.45 1.27H352zM357 38.94l-1.39-2.07v2.07h-1v-5h1.44c1.11 0 1.82.39 1.82 1.41a1.4 1.4 0 0 1-1.27 1.4c.14.18.28.38.4.55l1.21 1.68zm-1-4.25h-.38v1.45h.35c.58 0 .93-.29.93-.76s-.38-.69-.99-.69zM362.08 38.94l-1.47-2.53a12.06 12.06 0 0 1-.54-1.08V38.94h-.93v-5h1.25l1.4 2.39c.23.39.43.8.61 1.18 0-.5-.05-1.39-.05-2v-1.58h.94v5zM364.77 38.94v-5h1v5zM370.09 38.94l-1.47-2.53a8.35 8.35 0 0 1-.54-1.08V38.94h-.94v-5h1.26l1.39 2.39c.23.39.44.8.62 1.18 0-.5-.05-1.39-.05-2v-1.58h.93v5zM376.6 35a3.62 3.62 0 0 0-1.33-.25 1.61 1.61 0 0 0-1.7 1.74 1.5 1.5 0 0 0 1.6 1.69 2.15 2.15 0 0 0 .64-.09v-1.77h1v2.39a4.73 4.73 0 0 1-1.71.31 2.3 2.3 0 0 1-2.53-2.47 2.6 2.6 0 0 1 2.8-2.7 5 5 0 0 1 1.42.22zM378.3 39c-.36 0-.55-.17-.55-.51s.19-.51.55-.51.54.18.54.51-.18.51-.54.51z"/>
    <path class="cls-2"
          d="M251.81 23.23v-1.8l1.72-.19c.38-.06.44-.14.44-.56V6.85c0-.42-.06-.53-.44-.56l-1.72-.2V4.27h8.07v1.82l-2.27.23c-.41 0-.44.14-.44.53v14h6.12c.31 0 .39 0 .44-.3l.44-2.67h2.3v5.36zM277.52 23.23l-.27-1.66h-.08a6.52 6.52 0 0 1-4.82 2c-3.44 0-3.91-2.41-3.91-4 0-2.8 1.7-4.15 5-4.43l3.47-.28v-1.42c0-1.76-.3-2.72-2.41-2.72-1.5 0-2.51.12-2.51 2l-3-.28c0-3.59 3.2-4 5.53-4 4 0 5.44 1.15 5.44 5v7.21c0 .44 0 .5.44.56l1.34.19v1.8zm-.52-6.31l-2.6.22c-2.05.2-2.68.79-2.68 2.13s.63 1.8 1.75 1.8a5.37 5.37 0 0 0 3.53-1.68zM292.57 23.23v-1.77l1.36-.17c.39-.05.44-.22.44-.56v-6.5c0-1.68-.19-3.09-1.94-3.09a6.9 6.9 0 0 0-3.75 1.46v8.08c0 .44 0 .5.44.56l1.45.19v1.8h-6.78V21.4l1.31-.16c.38-.06.44-.14.44-.56v-9c0-.31-.08-.51-.36-.59l-1.5-.53.27-1.8H288l.22 1.55h.11a8.8 8.8 0 0 1 5.11-1.85c3 0 4.08 1.91 4.08 5.13v7.1c0 .44 0 .5.44.56l1.5.19v1.8zM312.29 11a4.55 4.55 0 0 1 1 2.89c0 3.25-2.52 5-5.72 5a8.42 8.42 0 0 1-2.3-.25l-1.26 2.13 3.37.17c4.87.25 7.19.5 7.19 3.89 0 3-2.51 4.71-7.27 4.71s-6.54-1.31-6.54-3.45a4.12 4.12 0 0 1 1.67-3 1.85 1.85 0 0 1-1.26-1.74 2.35 2.35 0 0 1 .68-1.6c.44-.5 1-1.2 1.51-1.73a4.51 4.51 0 0 1-2.13-4.12c0-3.12 2.13-5.39 6-5.39a10.35 10.35 0 0 1 2.57.28h5v2zm-7.66 12.67a3.21 3.21 0 0 0-1 2c0 1.29 1.45 1.71 3.83 1.71 1.39 0 4.05-.22 4.05-2 0-1.23-1-1.29-2.63-1.4zm2.84-12.9a2.85 2.85 0 0 0-3.17 3.06c0 1.6.85 2.8 3.09 2.8a2.84 2.84 0 0 0 3.15-2.86 2.77 2.77 0 0 0-3.07-3.05zM325.31 23.23l-.31-1.66h-.08a6.52 6.52 0 0 1-4.81 2c-3.45 0-3.91-2.41-3.91-4 0-2.8 1.69-4.15 5-4.43l3.47-.28v-1.42c0-1.76-.3-2.72-2.4-2.72-1.51 0-2.52.12-2.52 2l-2.95-.28c0-3.59 3.2-4 5.52-4 4 0 5.44 1.15 5.44 5v7.21c0 .44 0 .5.44.56l1.34.19v1.8zm-.58-6.31l-2.6.22c-2.05.2-2.68.79-2.68 2.13s.63 1.8 1.76 1.8a5.35 5.35 0 0 0 3.52-1.68zM331.49 23.23V21.4l1.31-.16c.38-.06.44-.14.44-.56v-9a.53.53 0 0 0-.36-.59l-1.5-.53.27-1.8h4.08l.3 2h.08a5.06 5.06 0 0 1 4-2.36 10.05 10.05 0 0 1 2.14.25v4.6l-2.47-.11-.32-1.74c0-.25-.09-.31-.33-.31a4.81 4.81 0 0 0-2.77 1.46v8c0 .45.06.53.47.56l2.57.22v1.8zM352.88 23.23l-.28-1.66h-.08a6.52 6.52 0 0 1-4.81 2c-3.45 0-3.91-2.41-3.91-4 0-2.8 1.69-4.15 5-4.43l3.47-.28v-1.42c0-1.76-.3-2.72-2.4-2.72-1.51 0-2.52.12-2.52 2l-2.95-.28c0-3.59 3.2-4 5.52-4 4 0 5.44 1.15 5.44 5v7.21c0 .44 0 .5.44.56l1.34.19v1.8zm-.58-6.31l-2.6.22c-2.05.2-2.68.79-2.68 2.13s.63 1.8 1.75 1.8a5.37 5.37 0 0 0 3.53-1.68zM361.24 23.56c-1.12 0-1.69-.53-1.69-1.61a1.68 1.68 0 0 1 3.35 0 1.46 1.46 0 0 1-1.66 1.61z"/>
</svg>
