<svg xmlns="http://www.w3.org/2000/svg" viewBox="189 93 4870.99 1588">
  <defs fill="#000000">
    <style>
      .cls-1 {
        fill: #ffffff;
        fill-rule: evenodd;
      }

      .cls-2 {
        fill: #fdd200;
      }
    </style>
  </defs>
  <path id="emplace-text" class="cls-1" d="M2408.99,1065.02q36.99-49.995,37-137v-22h-104v35q0,29.016-4.5,50.5-4.5,21.516-17,33-12.51,11.505-36.5,11.5-23.01,0-37.5-10.5t-21-32.5q-6.51-21.984-6.5-57v-116h228v-47q0-78.985-11-135.5-11.01-56.485-45.5-86.5t-107.5-30q-66,0-103.5,26t-52.5,77q-15,51-15,128v132q0,75,14.5,126.505t51.5,78q36.99,26.505,105,26.5Q2371.985,1115.02,2408.99,1065.02Zm-190-334q0-49.993,5-78.5t18.5-40.5q13.5-12,39.5-12,27,0,39.5,12.5,12.5,12.516,16.5,37,3.99,24.515,4,60.5v52h-123v-31Zm424,376v-471q21-21.985,44.5-34.5,23.49-12.493,45.5-12.5,23,0,36.5,14.5t13.5,56.5v447h98v-471q20-21.985,44-34.5,24-12.493,46-12.5,23,0,36.5,14.5t13.5,56.5v447h98v-454q0-48-14-77.5t-37-43a98.923,98.923,0,0,0-51-13.5,174.948,174.948,0,0,0-76.5,17.5q-36.51,17.507-67.5,55.5-11.01-40.993-36.5-57-25.5-15.985-57.5-16a171.555,171.555,0,0,0-72,16q-35.01,16.007-64,49v-55h-99v578h99Zm688,190v-233a233.845,233.845,0,0,0,43,35.5q24,15.48,55,15.5,57,0,88.5-33.5t43.5-88q12-54.493,12-115.5v-140q0-25.993-4-62.5a306.131,306.131,0,0,0-17-72q-13-35.485-39.5-59-26.5-23.485-71.5-23.5-37,0-64,16a184.465,184.465,0,0,0-46,38v-46h-107v768h107Zm34-273.5a150.446,150.446,0,0,1-34-18.5v-370a147.021,147.021,0,0,1,33-21,92.3,92.3,0,0,1,40-9q27.99,0,41,18,12.99,18,17,48.5a514.366,514.366,0,0,1,4,66.5v140q0,42-3,77t-15,55.5q-12,20.505-40,20.5Q3383.99,1031.02,3364.99,1023.52Zm422,83.5v-810h-107v810h107Zm294.5-21.5q28.5-29.49,38.5-63.5,1.995,20.01,6.5,44.5,4.5,24.51,7.5,40.5h98q-2.01-18.99-4.5-40.5-2.505-21.495-4-46.5-1.5-24.99-1.5-52v-264q0-88.993-36-136t-122-47q-88,0-130,45.5t-44,141.5l106,4v-29q0-24.985,6-43.5,6-18.493,19.5-28.5,13.5-9.984,35.5-10,24.99,0,37.5,11.5t16.5,34.5q3.99,23.015,4,58v41q-46,18-87.5,37t-73,44.5a181.634,181.634,0,0,0-49.5,62.5q-18,37.007-18,91a144.26,144.26,0,0,0,15,64.5,136.834,136.834,0,0,0,41,50q26,19.5,60,19.5Q4052.985,1115.02,4081.49,1085.52Zm-74.5-82.5q-13-20-13-55,0-24.985,9.5-44.5a119.813,119.813,0,0,1,26-35,260.4,260.4,0,0,1,38.5-29.5q21.99-13.993,47-28v164q-4.005,7.008-15,18.5a136.781,136.781,0,0,1-25,20.5,54.519,54.519,0,0,1-30,9Q4019.985,1023.02,4006.99,1003.02Zm572.5,90q34.5-21.99,48-64t13.5-100v-40h-97v47a348.4,348.4,0,0,1-3.5,52q-3.51,23.018-16,35.5-12.51,12.51-39.5,12.5-36,0-50-25t-14-99v-182q0-48.985,4.5-77.5t18.5-40.5q13.995-12,40-12,24,0,37,10t18,32q4.995,22.007,5,60v35h97v-34q0-60-13-100.5t-47.5-61q-34.5-20.485-97.5-20.5-70.005,0-106.5,27.5-36.51,27.515-49.5,79-13.005,51.515-13,124.5v133q0,69,12.5,121t49,80.5q36.495,28.5,107.5,28.5Q4544.985,1115.02,4579.49,1093.02Zm442.5-28q36.99-49.995,37-137v-22h-104v35q0,29.016-4.5,50.5-4.5,21.516-17,33-12.51,11.505-36.5,11.5-23.01,0-37.5-10.5-14.505-10.5-21-32.5-6.51-21.984-6.5-57v-116h228v-47q0-78.985-11-135.5-11.01-56.485-45.5-86.5t-107.5-30q-66,0-103.5,26t-52.5,77q-15,51-15,128v132q0,75,14.5,126.505t51.5,78q36.99,26.505,105,26.5Q4984.985,1115.02,5021.99,1065.02Zm-190-334q0-49.993,5-78.5t18.5-40.5q13.5-12,39.5-12,27,0,39.5,12.5,12.495,12.516,16.5,37,3.99,24.515,4,60.5v52h-123v-31Z" fill="#000000"/>
  <rect id="yellow-box" class="cls-2" x="189" y="387" width="1294" height="1294" fill="#000000"/>
  <path id="brackets" class="cls-1" d="M880,93v80H477V607H397V113l20-20H880Zm398,0h469q10.005,10,20,20V607h-80V173H1278V93ZM397,948h80v435H880v80H417q-10-10.005-20-20V948Zm1290,0h80v495l-20,20H1278v-80h409V948Z" fill="#000000"/>
</svg>